<?xml version="1.0" encoding="UTF-8"?><svg id="Layer_1" xmlns="http://www.w3.org/2000/svg" width="93.37" height="86.66" viewBox="0 0 93.37 86.66"><defs><style>.cls-1{stroke:#7dab81;stroke-miterlimit:10;}</style></defs><path d="M.33,43.32h92.54v35.74c0,3.79-3.07,6.87-6.87,6.87H7.2c-3.79,0-6.87-3.07-6.87-6.87v-35.74Z"/><polygon points="86.83 43.82 86.83 15.17 5.83 15.17 5.83 43.82 13.83 43.82 13.83 22.82 78.83 22.82 79.28 43.82 86.83 43.82"/><polygon class="cls-1" points="47.19 36.43 48.57 36.4 49.25 63.2 41.69 63.39 41.01 36.59 42.38 36.56 41.86 15.94 39.33 8.32 40.79 .83 46.28 .69 48.33 8.32 46.67 15.81 47.19 36.43"/><rect x="37.83" y="43.32" width="13.5" height="23.5"/><path class="cls-1" d="M33.71,11.94c-.13.34-1.06.13-5.85.06-1.56-.02-2.89-.02-4.49.55-.8.29-1.43.62-1.85.88l5.06,41.72-10.33-4.61L11.88,14.59c-.72-.56-.93-.54-1.36-.49l-9.41,1.14c-.12.01-.23-.07-.24-.19L-.09,7.15c-.01-.12.07-.23.19-.24l9.41-1.14c3.21-.39,5.34-.9,7.06-.86,4.98.13,8.55,1.78,11.46,3.17,2.6,1.23,5.94,3.19,5.68,3.87Z"/><rect x="13.83" y="43.32" width="13.5" height="23.5"/><path class="cls-1" d="M75.23.73c-.81,3.22-1.62,6.44-2.42,9.65.56.83,1.12,1.66,1.67,2.49,1.83.53,3.66,1.07,5.49,1.6.95-.3,1.91-.6,2.86-.91.94-3.28,1.87-6.56,2.81-9.84,3.86,4.04,4.62,9.88,2.07,14.09-2.78,4.59-8.21,5.14-8.82,5.19-2.86,9.39-5.73,18.79-8.59,28.18-2.72-.1-5.44-.21-8.17-.31,2.87-10.03,5.75-20.05,8.62-30.08-.46-.39-4.66-4.09-4.22-9.75.37-4.73,3.83-8.87,8.7-10.32Z"/><rect x="59.83" y="43.32" width="15.5" height="13.5"/></svg>